#!OML:ASF H:\Martial Arts Walks\Project 1\Capture day 1\Session 1\male.ASF
:FULLY-SPECIFIED
:DEGREES
921
root -5.76044 14.6401 13.2527 -57.4172 80.4525 -70.1761
lowerback 18.9686 0.888984 -6.02662
upperback -0.448506 0.425306 4.54294
thorax -11.3012 0.759234 8.4465
lowerneck 8.16128 -16.8496 -17.1814
upperneck -2.8715 -24.0702 25.2666
head 3.16634 -12.514 9.38176
rclavicle 2.00773e-014 -7.95139e-016
rhumerus -30.0728 23.7476 -65.0442
rradius 105.946
rwrist 3.61916
rhand -25.8024 -43.4605
rfingers 7.12502
rthumb 0.736609 -73.439
lclavicle 2.00773e-014 -7.95139e-016
lhumerus -23.0388 -33.8437 84.1002
lradius 102.465
lwrist 38.3929
lhand -7.27692 7.00557
lfingers 7.12502
lthumb 18.6045 36.1359
rfemur -49.098 -25.2118 3.69179
rtibia 72.663
rfoot 0.851881 -3.81222
rtoes 15.3672
lfemur -57.4391 31.6 -10.6532
ltibia 75.6801
lfoot -20.6362 17.1639
ltoes -8.37418
922
root -5.79885 14.6703 13.2757 -55.2682 80.2336 -68.0471
lowerback 18.8967 0.822278 -5.91952
upperback -0.484897 0.366719 4.57222
thorax -11.2894 0.726666 8.43251
lowerneck 8.05329 -16.8664 -17.1629
upperneck -2.81358 -24.0872 25.1916
head 3.19095 -12.512 9.34026
rclavicle -3.77691e-015 1.03368e-014
rhumerus -30.1511 23.5886 -64.8734
rradius 105.898
rwrist 3.54085
rhand -25.632 -43.285
rfingers 7.12502
rthumb 0.901135 -73.2628
lclavicle -3.77691e-015 1.03368e-014
lhumerus -22.9196 -34.1381 84.0137
lradius 102.462
lwrist 38.3217
lhand -7.15493 6.93687
lfingers 7.12502
lthumb 18.7218 36.0559
rfemur -47.9941 -25.1118 2.97835
rtibia 72.3355
rfoot 2.91737 -4.74878
rtoes 16.8412
lfemur -57.162 31.5882 -10.3907
ltibia 75.2071
lfoot -20.2321 17.2925
ltoes -8.30022
923
root -5.836 14.7008 13.2994 -52.5746 80.0292 -65.438
lowerback 18.75 0.722791 -5.94144
upperback -0.506236 0.244366 4.64938
thorax -11.2073 0.669832 8.56511
lowerneck 7.85641 -16.8016 -17.372
upperneck -2.72691 -24.0143 25.1677
head 3.2556 -12.459 9.34649
rclavicle -1.72943e-014 -1.07344e-014
rhumerus -30.0922 23.7465 -64.6326
rradius 105.938
rwrist 3.30014
rhand -25.6613 -43.3027
rfingers 7.12502
rthumb 0.872918 -73.2807
lclavicle -1.72943e-014 -1.07344e-014
lhumerus -22.7906 -34.0801 83.9294
lradius 102.486
lwrist 38.3375
lhand -6.83218 6.91856
lfingers 7.12502
lthumb 19.0322 36.0074
rfemur -47.0794 -25.0697 2.40509
rtibia 71.8646
rfoot 5.13386 -5.56581
rtoes 16.9388
lfemur -56.9094 31.5436 -10.2023
ltibia 74.7338
lfoot -19.8318 17.4907
ltoes -8.18319
924
root -5.87054 14.7312 13.3234 -49.8229 79.7504 -62.7475
lowerback 18.5982 0.728443 -5.81766
upperback -0.552549 0.279412 4.61191
thorax -11.1785 0.676435 8.43512
lowerneck 7.88493 -16.8171 -17.3173
upperneck -2.79695 -24.0234 25.1885
head 3.22884 -12.468 9.34987
rclavicle 1.17283e-014 -1.66979e-014
rhumerus -30.3167 23.3762 -64.622
rradius 105.888
rwrist 3.23763
rhand -25.6918 -43.3657
rfingers 7.12502
rthumb 0.843443 -73.3438
lclavicle 1.17283e-014 -1.66979e-014
lhumerus -22.7032 -34.4043 83.8674
lradius 102.494
lwrist 38.324
lhand -6.50515 6.75867
lfingers 7.12502
lthumb 19.3467 35.8163
rfemur -46.2171 -25.1008 1.95011
rtibia 71.2279
rfoot 7.32528 -6.18976
rtoes 17.9751
lfemur -56.5972 31.5661 -9.96941
ltibia 74.2691
lfoot -19.4205 17.7458
ltoes -8.13993
925
root -5.89862 14.7598 13.3438 -46.2292 79.3495 -59.2529
lowerback 18.3238 0.841513 -5.70038
upperback -0.620482 0.453639 4.52587
thorax -11.1297 0.74629 8.21167
lowerneck 8.02511 -16.8639 -17.2891
upperneck -2.86707 -24.0937 25.3035
head 3.21401 -12.5158 9.38682
rclavicle -3.18055e-015 1.19271e-014
rhumerus -30.723 22.9627 -64.5795
rradius 105.939
rwrist 3.10387
rhand -25.6638 -43.3078
rfingers 7.12502
rthumb 0.870454 -73.2858
lclavicle -3.18055e-015 1.19271e-014
lhumerus -22.6707 -34.9612 83.786
lradius 102.547
lwrist 38.3346
lhand -5.60766 6.63953
lfingers 7.12502
lthumb 20.2095 35.6082
rfemur -45.5033 -25.0278 1.61769
rtibia 70.4354
rfoot 9.20356 -6.63486
rtoes 18.7136
lfemur -56.2404 31.7845 -9.76438
ltibia 73.8003
lfoot -18.9881 18.0182
ltoes -8.07633
926
root -5.93129 14.7904 13.3726 -43.0295 79.0081 -56.1755
lowerback 18.1065 0.888772 -5.68928
upperback -0.684538 0.516614 4.45716
thorax -11.0887 0.771061 8.10459
lowerneck 8.04991 -16.8895 -17.1778
upperneck -2.91972 -24.1112 25.2983
head 3.18363 -12.5281 9.37319
rclavicle 2.34566e-014 -1.51076e-014
rhumerus -30.9419 22.6377 -64.556
rradius 105.907
rwrist 2.99872
rhand -25.6545 -43.2126
rfingers 7.12502
rthumb 0.879477 -73.1905
lclavicle 2.34566e-014 -1.51076e-014
lhumerus -22.6492 -35.2044 83.6969
lradius 102.602
lwrist 38.281
lhand -5.17047 6.67782
lfingers 7.12502
lthumb 20.6296 35.6015
rfemur -44.8452 -25.1041 1.33852
rtibia 69.5079
rfoot 10.8044 -6.7051
rtoes 18.2384
lfemur -55.9027 31.7744 -9.56789
ltibia 73.2962
lfoot -18.5389 18.369
ltoes -7.83996
